<?xml version="1.0" encoding="UTF-8"?>
<!DOCTYPE svg PUBLIC "-//W3C//DTD SVG 1.1//EN" "http://www.w3.org/Graphics/SVG/1.1/DTD/svg11.dtd">
<svg version="1.1" xmlns="http://www.w3.org/2000/svg" xmlns:xlink="http://www.w3.org/1999/xlink" x="0" y="0" width="78.5" height="90.98" viewBox="0, 0, 78.5, 90.98">
  <g id="Background">
    <rect x="0" y="0" width="78.5" height="90.98" fill="#000000" fill-opacity="0"/>
  </g>
  <defs>
    <linearGradient id="Gradient_1" gradientUnits="userSpaceOnUse" x1="169.5" y1="61.75" x2="243" y2="61.75" gradientTransform="matrix(0, -1, 1, 0, -22.5, 258)">
      <stop offset="0" stop-color="#EE1A1A"/>
      <stop offset="1" stop-color="#F13D3D"/>
    </linearGradient>
    <linearGradient id="Gradient_2" gradientUnits="userSpaceOnUse" x1="205.94" y1="33.594" x2="208.38" y2="27.594" gradientTransform="matrix(1.84, 0, 0, 1.84, -340, -39.168)">
      <stop offset="0" stop-color="#57B511"/>
      <stop offset="1" stop-color="#0FA41F"/>
    </linearGradient>
  </defs>
  <g id="Layer_1">
    <g>
      <path d="M34.469,0 C33.503,0.103 32.63,0.821 32.344,1.75 C31.35,4.897 28.805,9.154 28.594,14 C23.736,15.369 19.272,17.628 15.375,20.625 C14.333,20.382 13.3,20.125 12.062,19.844 C10.889,19.534 9.538,20.219 9.095,21.349 C8.653,22.478 9.179,23.899 10.25,24.469 C10.491,24.606 10.675,24.713 10.906,24.844 C4.236,31.885 0,41.272 0,51.719 C0,73.367 17.602,90.969 39.25,90.969 C60.898,90.969 78.5,73.367 78.5,51.719 C78.5,38.425 71.823,26.725 61.688,19.625 C64.028,16.699 65.578,13.115 65.751,9.031 C65.805,7.969 65.103,6.912 64.103,6.55 C63.103,6.189 61.887,6.554 61.251,7.406 C59.221,10.054 56.516,12.818 52.938,14.968 C51.685,14.5 50.408,14.091 49.094,13.749 C49.98,12.686 49.733,10.88 48.594,10.093 C48.594,10.093 48.049,9.707 47.376,9.312 C47.039,9.115 46.671,8.936 46.251,8.75 C45.83,8.563 45.449,8.312 44.501,8.312 C42.982,8.312 42.014,8.933 41.313,9.406 C40.612,9.878 40.126,10.375 40.126,10.375 C39.572,10.907 39.286,11.705 39.376,12.468 C39.335,12.468 39.291,12.468 39.251,12.468 C38.949,12.468 38.672,12.492 38.376,12.5 C37.579,9.371 37.481,5.803 37.219,2.312 C37.126,0.979 35.799,-0.138 34.469,-0.001 z" fill="#000000"/>
      <path d="M39.25,15 C59.546,15 76,31.454 76,51.75 C76,72.046 59.546,88.5 39.25,88.5 C18.954,88.5 2.5,72.046 2.5,51.75 C2.5,31.454 18.954,15 39.25,15 z" fill="url(#Gradient_1)"/>
      <g>
        <path d="M44.273,25.933 C56.412,32.969 60.257,38.481 66.243,46.636 C58.506,41.071 52.577,32.586 39.904,28.119 C29.188,31.247 24.084,38.849 18.855,45.027 C22.638,37.897 27.668,29.867 35.303,26.51 C24.479,29.951 22.484,28.508 11.493,22.254 C22.688,24.8 26.752,26.142 35.187,22.254 C26.936,16.336 32.765,8.681 34.726,2.471 C35.175,8.45 34.342,16.317 41.053,21.104 C52.685,20.4 59.218,14.175 63.25,8.912 C62.843,18.547 54.121,24.828 44.273,25.934 z" fill="#57B511"/>
        <path d="M35.992,22.712 C38.422,19.343 42.758,16.61 41.858,12.13 C41.858,12.13 43.225,10.788 44.486,10.788 C45.218,10.788 47.149,12.13 47.149,12.13 C42.675,16.691 43.593,21.666 42.778,26.508 z" fill="url(#Gradient_2)"/>
      </g>
    </g>
  </g>
</svg>
