<?xml version="1.0" encoding="UTF-8"?>
<!DOCTYPE svg PUBLIC "-//W3C//DTD SVG 1.1//EN" "http://www.w3.org/Graphics/SVG/1.1/DTD/svg11.dtd">
<svg version="1.1" xmlns="http://www.w3.org/2000/svg" xmlns:xlink="http://www.w3.org/1999/xlink" x="0" y="0" width="1024" height="1024" viewBox="0, 0, 1024, 1024">
  <g id="Background">
    <rect x="0" y="0" width="1024" height="1024" fill="#000000" fill-opacity="0"/>
  </g>
  <defs>
    <linearGradient id="Gradient_1" gradientUnits="userSpaceOnUse" x1="-614" y1="534.5" x2="1.139" y2="534.5" gradientTransform="matrix(0, -1, 1, 0, -22.5, 258)">
      <stop offset="0" stop-color="#EE1A1A"/>
      <stop offset="1" stop-color="#F13D3D"/>
    </linearGradient>
  </defs>
  <g id="Layer_1">
    <g>
      <g>
        <path d="M512,256.861 C681.862,256.861 819.569,394.569 819.569,564.431 C819.569,734.293 681.862,872 512,872 C342.138,872 204.431,734.293 204.431,564.431 C204.431,394.569 342.138,256.861 512,256.861 z" fill="url(#Gradient_1)"/>
        <path d="M512,256.861 C681.862,256.861 819.569,394.569 819.569,564.431 C819.569,734.293 681.862,872 512,872 C342.138,872 204.431,734.293 204.431,564.431 C204.431,394.569 342.138,256.861 512,256.861 z" fill-opacity="0" stroke="#000000" stroke-width="10"/>
      </g>
      <g>
        <g>
          <path d="M474.142,152 C477.009,201.229 474.216,253.513 509.599,292.572 C525.661,274.698 538.025,257.993 533.824,232.845 C533.824,232.845 545.267,221.614 555.818,221.614 C561.944,221.614 578.104,232.845 578.104,232.845 C557.621,253.423 549.514,277.813 546.455,306.076 C616.336,297.682 670.077,260.975 712.863,205.907 C708.382,291.679 631.958,338.305 554.061,348.371 C600.569,374.928 644.095,406.988 679.87,447.061 C700.865,470.579 719.284,496.24 737.907,521.63 C673.157,475.053 623.539,404.043 517.475,366.656 C427.787,392.84 385.072,456.46 341.308,508.161 C372.97,448.493 415.068,381.287 478.962,353.187 C388.375,381.99 371.679,369.912 279.693,317.57 C373.387,338.879 407.401,350.109 477.992,317.57 C408.939,268.04 457.728,203.974 474.142,152 z" fill="#57B511"/>
          <path d="M474.142,152 C477.009,201.229 474.216,253.513 509.599,292.572 C525.661,274.698 538.025,257.993 533.824,232.845 C533.824,232.845 545.267,221.614 555.818,221.614 C561.944,221.614 578.104,232.845 578.104,232.845 C557.621,253.423 549.514,277.813 546.455,306.076 C616.336,297.682 670.077,260.975 712.863,205.907 C708.382,291.679 631.958,338.305 554.061,348.371 C600.569,374.928 644.095,406.988 679.87,447.061 C700.865,470.579 719.284,496.24 737.907,521.63 C673.157,475.053 623.539,404.043 517.475,366.656 C427.787,392.84 385.072,456.46 341.308,508.161 C372.97,448.493 415.068,381.287 478.962,353.187 C388.375,381.99 371.679,369.912 279.693,317.57 C373.387,338.879 407.401,350.109 477.992,317.57 C408.939,268.04 457.728,203.974 474.142,152 z" fill-opacity="0" stroke="#000000" stroke-width="10"/>
        </g>
      </g>
    </g>
  </g>
</svg>
