<?xml version="1.0" encoding="UTF-8"?>
<!DOCTYPE svg PUBLIC "-//W3C//DTD SVG 1.1//EN" "http://www.w3.org/Graphics/SVG/1.1/DTD/svg11.dtd">
<svg version="1.1" xmlns="http://www.w3.org/2000/svg" xmlns:xlink="http://www.w3.org/1999/xlink" x="0" y="0" width="1024" height="1024" viewBox="0, 0, 1024, 1024">
  <g id="Background">
    <rect x="0" y="0" width="1024" height="1024" fill="#000000" fill-opacity="0"/>
  </g>
  <defs>
    <linearGradient id="Gradient_1" gradientUnits="userSpaceOnUse" x1="-738.214" y1="534.497" x2="89.036" y2="534.497" gradientTransform="matrix(0, -1, 1, 0, -22.5, 258)">
      <stop offset="0" stop-color="#EE1A1A"/>
      <stop offset="1" stop-color="#F13D3D"/>
    </linearGradient>
    <linearGradient id="Gradient_2" gradientUnits="userSpaceOnUse" x1="461.385" y1="159.915" x2="488.847" y2="92.384" gradientTransform="matrix(1.84, 0, 0, 1.84, -340, -39.168)">
      <stop offset="0" stop-color="#57B511"/>
      <stop offset="1" stop-color="#0FA41F"/>
    </linearGradient>
  </defs>
  <g id="Layer_1">
    <g>
      <path d="M458.187,0.138 C447.311,1.295 437.49,9.382 434.27,19.834 C423.084,55.253 394.433,103.171 392.063,157.709 C337.385,173.12 287.138,198.543 243.282,232.274 C231.549,229.54 219.929,226.648 205.999,223.481 C192.797,219.991 177.588,227.705 172.605,240.419 C167.623,253.133 173.541,269.127 185.599,275.536 C188.307,277.076 190.385,278.282 192.986,279.757 C117.908,359.01 70.238,464.655 70.238,582.237 C70.238,825.888 268.35,1024 512,1024 C755.65,1024 953.763,825.888 953.763,582.237 C953.763,432.612 878.607,300.928 764.542,221.016 C790.88,188.091 808.323,147.743 810.266,101.78 C810.882,89.829 802.976,77.928 791.721,73.864 C780.466,69.799 766.78,73.903 759.618,83.49 C736.776,113.3 706.332,144.405 666.06,168.607 C651.949,163.336 637.576,158.737 622.797,154.889 C632.76,142.921 629.98,122.593 617.17,113.738 C617.17,113.738 611.025,109.389 603.452,104.945 C599.666,102.724 595.52,100.718 590.79,98.614 C586.06,96.511 581.762,93.69 571.094,93.69 C554.002,93.69 543.109,100.685 535.218,106.001 C527.328,111.316 521.853,116.905 521.853,116.905 C515.621,122.898 512.403,131.882 513.411,140.47 C512.957,140.469 512.457,140.47 512.005,140.47 C508.607,140.47 505.491,140.732 502.156,140.822 C493.195,105.607 492.087,65.454 489.143,26.155 C488.093,11.152 473.153,-1.411 458.192,0.128 z" fill="#000000"/>
      <path d="M511.997,168.964 C740.431,168.964 925.622,354.156 925.622,582.589 C925.622,811.023 740.431,996.214 511.997,996.214 C283.564,996.214 98.372,811.023 98.372,582.589 C98.372,354.156 283.564,168.964 511.997,168.964 z" fill="url(#Gradient_1)"/>
      <g>
        <path d="M568.532,292.012 C705.16,371.205 748.435,433.242 815.801,525.031 C728.724,462.393 661.996,366.897 519.36,316.619 C398.745,351.831 341.303,437.389 282.447,506.917 C325.027,426.674 381.641,336.294 467.568,298.506 C345.744,337.24 323.291,320.998 199.586,250.607 C325.588,279.263 371.33,294.365 466.263,250.607 C373.399,183.997 439.011,97.84 461.085,27.945 C466.127,95.247 456.763,183.786 532.285,237.662 C663.206,229.739 736.738,159.68 782.122,100.44 C777.538,208.884 679.376,279.576 568.532,292.033 z" fill="#57B511"/>
        <path d="M475.325,255.765 C502.678,217.848 551.483,187.081 541.346,136.666 C541.346,136.666 556.735,121.563 570.924,121.563 C579.163,121.563 600.896,136.666 600.896,136.666 C550.541,187.995 560.877,243.99 551.703,298.485 z" fill="url(#Gradient_2)"/>
      </g>
    </g>
  </g>
</svg>
