<?xml version="1.0" encoding="UTF-8"?>
<!DOCTYPE svg PUBLIC "-//W3C//DTD SVG 1.1//EN" "http://www.w3.org/Graphics/SVG/1.1/DTD/svg11.dtd">
<svg version="1.1" xmlns="http://www.w3.org/2000/svg" xmlns:xlink="http://www.w3.org/1999/xlink" x="0" y="0" width="1024" height="1024" viewBox="0, 0, 1024, 1024">
  <g id="Background">
    <rect x="0" y="0" width="1024" height="1024" fill="#000000" fill-opacity="0"/>
  </g>
  <g id="Layer_1">
    <g>
      <g>
        <path d="M666.91,299.096 C763.108,351.679 816.771,457.575 819.48,564.52 C819.48,734.333 681.813,872 512,872 C342.187,872 204.52,734.333 204.52,564.52 C205.713,478.413 241.139,389.825 308.703,334.077 C340.246,352.224 373.582,370.463 411.161,368.378 C434.451,367.086 456.833,360.083 478.972,353.338 C415.096,381.429 373.01,448.616 341.357,508.267 C385.109,456.581 427.811,392.979 517.473,366.802 C623.506,404.179 673.111,475.169 737.841,521.731 C686.869,452.443 631.674,388.782 554.047,348.523 C598.355,342.34 632.324,326.86 666.91,299.096 z" fill="#000000"/>
        <path d="M443.117,265.093 C444.11,287.958 461.618,304.387 478.002,317.731 C420.347,345.435 378.121,340.06 317.968,326.43 C353.896,296.707 397.256,274.469 443.117,265.093 z" fill="#000000"/>
        <path d="M558.711,260.571 C582.093,264.165 604.949,270.298 626.732,279.508 C602.943,295.331 574.304,301.947 546.465,306.166 C548.539,290.349 553.073,275.407 558.711,260.571 z" fill="#000000"/>
        <path d="M512,257.04 C529.191,257.475 522.574,256.908 531.907,257.854 C527.928,271.47 519.445,282.144 510.029,292.333 C500.464,282.573 494.448,270.63 489.467,258.12 C501.426,256.908 493.929,257.497 512,257.04 z" fill="#000000"/>
      </g>
      <path d="M470.982,152 C472.921,201.023 472.013,253.782 506.859,292.124 C523.3,275.552 533.751,256.126 530.648,232.821 C530.648,232.821 542.088,221.594 552.636,221.594 C558.76,221.594 574.916,232.821 574.916,232.821 C552.268,255.73 549.015,275.243 543.296,305.957 C613.146,297.359 666.218,259.184 709.635,205.891 C704.214,291.295 628.211,337.013 550.877,348.314 C628.504,388.573 683.699,452.234 734.671,521.522 C669.941,474.96 620.337,403.97 514.304,366.594 C424.642,392.77 381.94,456.372 338.188,508.058 C369.841,448.407 411.926,381.22 475.803,353.129 C385.241,381.924 368.55,369.849 276.591,317.523 C370.258,338.825 404.262,350.051 474.833,317.523 C405.8,268.006 467.525,165.668 470.983,152 z" fill-opacity="0" stroke="#000000" stroke-width="11.255" stroke-linejoin="round" stroke-miterlimit="2"/>
    </g>
  </g>
</svg>
